STARTFONT 2.1
FONT -Adobe-Utopia-Regular-R-Normal--14-100-100-100-P-75-ISO8859-2
SIZE 10 100 100
FONTBOUNDINGBOX 18 16 -2 -3
STARTPROPERTIES 29
FOUNDRY "Adobe"
FAMILY_NAME "Utopia"
WEIGHT_NAME "Regular"
SLANT "R"
SETWIDTH_NAME "Normal"
ADD_STYLE_NAME ""
PIXEL_SIZE 14
POINT_SIZE 100
RESOLUTION_X 100
RESOLUTION_Y 100
SPACING "P"
AVERAGE_WIDTH 75
CHARSET_REGISTRY "ISO8859"
CHARSET_ENCODING "2"
CAP_HEIGHT 10
X_HEIGHT 7
RELATIVE_SETWIDTH 50
RELATIVE_WEIGHT 50
WEIGHT 136
FACE_NAME "Utopia Regular"
COPYRIGHT "Copyright (c) 1989, 1991 Adobe Systems Incorporated.  All Rights Reserved., Copyright 1996 Cub Soft"
NOTICE "Utopia is a registered trademark of Adobe Systems Incorporated."
DESTINATION 0
FONT_ASCENT 13
FONT_DESCENT 3
DEFAULT_CHAR 32
_ADOBE_PSFONT "Utopia-Regular"
_ADOBE_XFONT "-Adobe-Utopia-Regular-R-Normal--14-100-100-100-P-75-ISO8859-2"
_DEC_DEVICE_FONTNAMES "PS=Utopia-Regular"
ENDPROPERTIES
CHARS 191
STARTCHAR space
ENCODING 32
SWIDTH 225 0
DWIDTH 3 0
BBX 0 0 0 0
BITMAP
ENDCHAR
STARTCHAR exclam
ENCODING 33
SWIDTH 242 0
DWIDTH 3 0
BBX 1 10 1 0
BITMAP
80
80
80
80
80
80
80
00
80
80
ENDCHAR
STARTCHAR quotedbl
ENCODING 34
SWIDTH 458 0
DWIDTH 6 0
BBX 4 4 1 6
BITMAP
90
90
90
90
ENDCHAR
STARTCHAR numbersign
ENCODING 35
SWIDTH 530 0
DWIDTH 7 0
BBX 7 10 0 0
BITMAP
14
24
24
7e
28
28
fc
48
48
50
ENDCHAR
STARTCHAR dollar
ENCODING 36
SWIDTH 530 0
DWIDTH 7 0
BBX 6 11 1 -1
BITMAP
20
70
ac
a0
60
30
2c
24
a4
78
20
ENDCHAR
STARTCHAR percent
ENCODING 37
SWIDTH 838 0
DWIDTH 12 0
BBX 10 11 1 -1
BITMAP
0100
7e00
9200
9200
9400
6980
0a40
1240
1240
2180
2000
ENDCHAR
STARTCHAR ampersand
ENCODING 38
SWIDTH 706 0
DWIDTH 10 0
BBX 9 9 1 0
BITMAP
3000
4800
4800
5100
7100
8900
8600
8e00
7180
ENDCHAR
STARTCHAR apostrophe
ENCODING 39
SWIDTH 278 0
DWIDTH 4 0
BBX 2 4 1 6
BITMAP
c0
40
40
80
ENDCHAR
STARTCHAR parenleft
ENCODING 40
SWIDTH 350 0
DWIDTH 5 0
BBX 3 12 1 -2
BITMAP
20
40
40
80
80
80
80
80
80
40
40
20
ENDCHAR
STARTCHAR parenright
ENCODING 41
SWIDTH 350 0
DWIDTH 5 0
BBX 3 12 0 -2
BITMAP
80
40
40
20
20
20
20
20
20
40
40
80
ENDCHAR
STARTCHAR asterisk
ENCODING 42
SWIDTH 412 0
DWIDTH 6 0
BBX 4 5 1 5
BITMAP
20
b0
60
b0
00
ENDCHAR
STARTCHAR plus
ENCODING 43
SWIDTH 570 0
DWIDTH 8 0
BBX 7 7 0 0
BITMAP
10
10
10
fe
10
10
10
ENDCHAR
STARTCHAR comma
ENCODING 44
SWIDTH 265 0
DWIDTH 4 0
BBX 2 4 1 -2
BITMAP
40
40
40
80
ENDCHAR
STARTCHAR minus
ENCODING 45
SWIDTH 570 0
DWIDTH 8 0
BBX 7 1 0 3
BITMAP
fe
ENDCHAR
STARTCHAR period
ENCODING 46
SWIDTH 265 0
DWIDTH 4 0
BBX 1 1 1 0
BITMAP
80
ENDCHAR
STARTCHAR slash
ENCODING 47
SWIDTH 460 0
DWIDTH 6 0
BBX 4 10 1 0
BITMAP
10
10
20
20
20
40
40
40
80
80
ENDCHAR
STARTCHAR zero
ENCODING 48
SWIDTH 530 0
DWIDTH 7 0
BBX 6 9 1 0
BITMAP
30
48
84
84
84
84
84
48
30
ENDCHAR
STARTCHAR one
ENCODING 49
SWIDTH 530 0
DWIDTH 7 0
BBX 5 9 1 0
BITMAP
20
e0
20
20
20
20
20
20
f8
ENDCHAR
STARTCHAR two
ENCODING 50
SWIDTH 530 0
DWIDTH 7 0
BBX 6 9 1 0
BITMAP
70
88
88
08
10
20
40
84
f8
ENDCHAR
STARTCHAR three
ENCODING 51
SWIDTH 530 0
DWIDTH 7 0
BBX 6 9 0 0
BITMAP
38
44
0c
30
0c
04
84
4c
30
ENDCHAR
STARTCHAR four
ENCODING 52
SWIDTH 530 0
DWIDTH 7 0
BBX 6 9 0 0
BITMAP
08
08
18
28
48
48
fc
08
1c
ENDCHAR
STARTCHAR five
ENCODING 53
SWIDTH 530 0
DWIDTH 7 0
BBX 6 9 0 0
BITMAP
7c
40
40
78
44
04
04
c4
38
ENDCHAR
STARTCHAR six
ENCODING 54
SWIDTH 530 0
DWIDTH 7 0
BBX 6 9 1 0
BITMAP
30
48
80
b8
c4
84
84
44
38
ENDCHAR
STARTCHAR seven
ENCODING 55
SWIDTH 530 0
DWIDTH 7 0
BBX 6 9 1 0
BITMAP
7c
84
08
10
10
20
20
20
20
ENDCHAR
STARTCHAR eight
ENCODING 56
SWIDTH 530 0
DWIDTH 7 0
BBX 6 9 1 0
BITMAP
70
88
88
88
70
8c
84
84
78
ENDCHAR
STARTCHAR nine
ENCODING 57
SWIDTH 530 0
DWIDTH 7 0
BBX 5 9 1 0
BITMAP
70
88
88
98
68
08
08
90
60
ENDCHAR
STARTCHAR colon
ENCODING 58
SWIDTH 265 0
DWIDTH 4 0
BBX 1 7 1 0
BITMAP
80
80
00
00
00
80
80
ENDCHAR
STARTCHAR semicolon
ENCODING 59
SWIDTH 265 0
DWIDTH 4 0
BBX 2 8 1 -1
BITMAP
40
c0
00
00
40
40
40
80
ENDCHAR
STARTCHAR less
ENCODING 60
SWIDTH 570 0
DWIDTH 8 0
BBX 7 8 1 -1
BITMAP
02
0e
30
40
c0
30
0c
02
ENDCHAR
STARTCHAR equal
ENCODING 61
SWIDTH 570 0
DWIDTH 8 0
BBX 7 4 0 1
BITMAP
fe
00
00
fe
ENDCHAR
STARTCHAR greater
ENCODING 62
SWIDTH 570 0
DWIDTH 8 0
BBX 7 8 0 -1
BITMAP
80
e0
18
04
06
18
60
80
ENDCHAR
STARTCHAR question
ENCODING 63
SWIDTH 389 0
DWIDTH 5 0
BBX 5 10 0 0
BITMAP
70
88
88
10
20
40
30
00
20
20
ENDCHAR
STARTCHAR at
ENCODING 64
SWIDTH 793 0
DWIDTH 11 0
BBX 10 10 1 0
BITMAP
1f00
2080
4e40
9240
9440
a440
ac80
9300
4000
3e00
ENDCHAR
STARTCHAR A
ENCODING 65
SWIDTH 635 0
DWIDTH 9 0
BBX 9 10 0 0
BITMAP
0800
1800
1400
1400
2400
1c00
2200
4200
4100
e380
ENDCHAR
STARTCHAR B
ENCODING 66
SWIDTH 646 0
DWIDTH 9 0
BBX 7 10 1 0
BITMAP
fc
42
42
46
78
44
42
42
46
f8
ENDCHAR
STARTCHAR C
ENCODING 67
SWIDTH 684 0
DWIDTH 9 0
BBX 8 10 1 0
BITMAP
3c
43
41
80
80
80
80
81
63
1c
ENDCHAR
STARTCHAR D
ENCODING 68
SWIDTH 779 0
DWIDTH 11 0
BBX 9 10 1 0
BITMAP
fe00
4100
4100
4080
4080
4080
4080
4100
4300
fc00
ENDCHAR
STARTCHAR E
ENCODING 69
SWIDTH 606 0
DWIDTH 8 0
BBX 7 10 1 0
BITMAP
fe
42
42
40
44
7c
44
40
42
fe
ENDCHAR
STARTCHAR F
ENCODING 70
SWIDTH 580 0
DWIDTH 8 0
BBX 7 10 1 0
BITMAP
fe
42
42
40
44
7c
44
40
40
e0
ENDCHAR
STARTCHAR G
ENCODING 71
SWIDTH 734 0
DWIDTH 10 0
BBX 9 10 1 0
BITMAP
1c00
6300
4100
8000
8000
8780
8100
4100
6100
1e00
ENDCHAR
STARTCHAR H
ENCODING 72
SWIDTH 798 0
DWIDTH 11 0
BBX 9 10 1 0
BITMAP
e380
4100
4100
4100
4100
7f00
4100
4100
4100
e380
ENDCHAR
STARTCHAR I
ENCODING 73
SWIDTH 349 0
DWIDTH 5 0
BBX 3 10 1 0
BITMAP
e0
40
40
40
40
40
40
40
40
e0
ENDCHAR
STARTCHAR J
ENCODING 74
SWIDTH 350 0
DWIDTH 5 0
BBX 4 12 0 -2
BITMAP
70
20
20
20
20
20
20
20
20
20
20
c0
ENDCHAR
STARTCHAR K
ENCODING 75
SWIDTH 658 0
DWIDTH 9 0
BBX 9 10 1 0
BITMAP
e780
4200
4400
5800
6000
5000
4800
4400
4200
e180
ENDCHAR
STARTCHAR L
ENCODING 76
SWIDTH 568 0
DWIDTH 8 0
BBX 7 10 1 0
BITMAP
e0
40
40
40
40
40
40
42
42
fc
ENDCHAR
STARTCHAR M
ENCODING 77
SWIDTH 944 0
DWIDTH 13 0
BBX 11 10 1 0
BITMAP
e060
6040
50c0
5140
5140
4940
4a40
4440
4440
e4e0
ENDCHAR
STARTCHAR N
ENCODING 78
SWIDTH 780 0
DWIDTH 11 0
BBX 9 10 1 0
BITMAP
c380
6100
5100
5100
4900
4900
4500
4300
4300
e100
ENDCHAR
STARTCHAR O
ENCODING 79
SWIDTH 762 0
DWIDTH 11 0
BBX 9 10 1 0
BITMAP
3e00
4100
4100
8080
8080
8080
8080
4100
4100
3e00
ENDCHAR
STARTCHAR P
ENCODING 80
SWIDTH 600 0
DWIDTH 8 0
BBX 7 10 1 0
BITMAP
f8
44
42
42
44
78
40
40
40
e0
ENDCHAR
STARTCHAR Q
ENCODING 81
SWIDTH 762 0
DWIDTH 11 0
BBX 9 13 1 -3
BITMAP
3e00
4100
4100
8080
8080
8080
8080
4100
4100
3e00
0400
0200
0180
ENDCHAR
STARTCHAR R
ENCODING 82
SWIDTH 644 0
DWIDTH 9 0
BBX 8 10 1 0
BITMAP
f8
44
42
42
44
78
44
42
42
e1
ENDCHAR
STARTCHAR S
ENCODING 83
SWIDTH 541 0
DWIDTH 8 0
BBX 6 10 1 0
BITMAP
30
cc
84
80
60
38
84
84
8c
70
ENDCHAR
STARTCHAR T
ENCODING 84
SWIDTH 621 0
DWIDTH 9 0
BBX 9 10 0 0
BITMAP
ff80
8880
8880
0800
0800
0800
0800
0800
0800
3e00
ENDCHAR
STARTCHAR U
ENCODING 85
SWIDTH 791 0
DWIDTH 11 0
BBX 9 10 1 0
BITMAP
e380
4100
4100
4100
4100
4100
4100
4100
2200
1c00
ENDCHAR
STARTCHAR V
ENCODING 86
SWIDTH 634 0
DWIDTH 9 0
BBX 10 10 0 0
BITMAP
f1c0
2080
2100
2100
1100
1200
1200
0c00
0800
0800
ENDCHAR
STARTCHAR W
ENCODING 87
SWIDTH 940 0
DWIDTH 13 0
BBX 14 10 0 0
BITMAP
e01c
4208
4208
4510
2510
2490
2490
28a0
1860
1040
ENDCHAR
STARTCHAR X
ENCODING 88
SWIDTH 624 0
DWIDTH 9 0
BBX 9 10 0 0
BITMAP
f380
2100
2200
1400
0800
1800
1400
2200
4200
e780
ENDCHAR
STARTCHAR Y
ENCODING 89
SWIDTH 588 0
DWIDTH 8 0
BBX 9 10 0 0
BITMAP
f380
2100
2200
1200
1400
0800
0800
0800
0800
1e00
ENDCHAR
STARTCHAR Z
ENCODING 90
SWIDTH 610 0
DWIDTH 8 0
BBX 9 10 0 0
BITMAP
7f80
4100
4200
0400
0400
0800
1000
2080
4080
ff80
ENDCHAR
STARTCHAR bracketleft
ENCODING 91
SWIDTH 330 0
DWIDTH 5 0
BBX 2 12 2 -2
BITMAP
c0
80
80
80
80
80
80
80
80
80
80
c0
ENDCHAR
STARTCHAR backslash
ENCODING 92
SWIDTH 460 0
DWIDTH 6 0
BBX 4 10 1 0
BITMAP
80
80
40
40
40
20
20
20
10
10
ENDCHAR
STARTCHAR bracketright
ENCODING 93
SWIDTH 330 0
DWIDTH 5 0
BBX 2 12 1 -2
BITMAP
c0
40
40
40
40
40
40
40
40
40
40
c0
ENDCHAR
STARTCHAR asciicircum
ENCODING 94
SWIDTH 570 0
DWIDTH 8 0
BBX 6 6 1 3
BITMAP
10
30
48
48
48
84
ENDCHAR
STARTCHAR underscore
ENCODING 95
SWIDTH 500 0
DWIDTH 7 0
BBX 7 1 0 -2
BITMAP
fe
ENDCHAR
STARTCHAR grave
ENCODING 96
SWIDTH 400 0
DWIDTH 6 0
BBX 3 3 1 7
BITMAP
80
40
20
ENDCHAR
STARTCHAR a
ENCODING 97
SWIDTH 523 0
DWIDTH 7 0
BBX 6 7 1 0
BITMAP
70
88
08
78
88
98
64
ENDCHAR
STARTCHAR b
ENCODING 98
SWIDTH 598 0
DWIDTH 8 0
BBX 7 10 0 0
BITMAP
40
c0
40
5c
62
42
42
42
44
78
ENDCHAR
STARTCHAR c
ENCODING 99
SWIDTH 496 0
DWIDTH 7 0
BBX 5 7 1 0
BITMAP
30
48
80
80
80
48
30
ENDCHAR
STARTCHAR d
ENCODING 100
SWIDTH 598 0
DWIDTH 8 0
BBX 7 10 1 0
BITMAP
04
0c
04
3c
44
84
84
84
4c
36
ENDCHAR
STARTCHAR e
ENCODING 101
SWIDTH 514 0
DWIDTH 7 0
BBX 5 7 1 0
BITMAP
30
48
88
f0
80
88
70
ENDCHAR
STARTCHAR f
ENCODING 102
SWIDTH 319 0
DWIDTH 4 0
BBX 5 10 1 0
BITMAP
20
58
40
f0
40
40
40
40
40
e0
ENDCHAR
STARTCHAR g
ENCODING 103
SWIDTH 520 0
DWIDTH 7 0
BBX 6 10 1 -3
BITMAP
74
88
88
88
70
80
78
84
8c
70
ENDCHAR
STARTCHAR h
ENCODING 104
SWIDTH 607 0
DWIDTH 8 0
BBX 8 10 0 0
BITMAP
40
c0
40
5c
62
42
42
42
42
e7
ENDCHAR
STARTCHAR i
ENCODING 105
SWIDTH 291 0
DWIDTH 4 0
BBX 3 10 1 0
BITMAP
40
40
00
40
c0
40
40
40
40
e0
ENDCHAR
STARTCHAR j
ENCODING 106
SWIDTH 280 0
DWIDTH 4 0
BBX 3 13 0 -3
BITMAP
20
20
00
20
60
20
20
20
20
20
20
40
80
ENDCHAR
STARTCHAR k
ENCODING 107
SWIDTH 524 0
DWIDTH 7 0
BBX 7 10 0 0
BITMAP
40
c0
40
44
58
60
60
50
48
e6
ENDCHAR
STARTCHAR l
ENCODING 108
SWIDTH 279 0
DWIDTH 4 0
BBX 3 10 0 0
BITMAP
40
c0
40
40
40
40
40
40
40
e0
ENDCHAR
STARTCHAR m
ENCODING 109
SWIDTH 923 0
DWIDTH 13 0
BBX 11 7 1 0
BITMAP
5b80
e440
4440
4440
4440
4440
eee0
ENDCHAR
STARTCHAR n
ENCODING 110
SWIDTH 619 0
DWIDTH 9 0
BBX 7 7 1 0
BITMAP
58
e4
44
44
44
44
ee
ENDCHAR
STARTCHAR o
ENCODING 111
SWIDTH 577 0
DWIDTH 8 0
BBX 6 7 1 0
BITMAP
30
48
84
84
84
48
30
ENDCHAR
STARTCHAR p
ENCODING 112
SWIDTH 608 0
DWIDTH 8 0
BBX 7 10 1 -3
BITMAP
5c
e2
42
42
42
44
78
40
40
e0
ENDCHAR
STARTCHAR q
ENCODING 113
SWIDTH 591 0
DWIDTH 8 0
BBX 7 10 1 -3
BITMAP
3c
44
84
84
84
8c
74
04
04
0e
ENDCHAR
STARTCHAR r
ENCODING 114
SWIDTH 389 0
DWIDTH 5 0
BBX 5 7 1 0
BITMAP
78
c0
40
40
40
40
e0
ENDCHAR
STARTCHAR s
ENCODING 115
SWIDTH 436 0
DWIDTH 6 0
BBX 4 7 1 0
BITMAP
60
90
80
60
10
90
60
ENDCHAR
STARTCHAR t
ENCODING 116
SWIDTH 344 0
DWIDTH 5 0
BBX 4 9 1 0
BITMAP
40
40
f0
40
40
40
40
40
30
ENDCHAR
STARTCHAR u
ENCODING 117
SWIDTH 606 0
DWIDTH 8 0
BBX 8 7 0 0
BITMAP
42
c6
42
42
42
46
3b
ENDCHAR
STARTCHAR v
ENCODING 118
SWIDTH 504 0
DWIDTH 7 0
BBX 7 7 0 0
BITMAP
ee
44
44
28
28
28
10
ENDCHAR
STARTCHAR w
ENCODING 119
SWIDTH 768 0
DWIDTH 11 0
BBX 11 7 0 0
BITMAP
e0e0
4440
4a40
2a80
2a80
2980
1100
ENDCHAR
STARTCHAR x
ENCODING 120
SWIDTH 486 0
DWIDTH 7 0
BBX 7 7 0 0
BITMAP
ee
44
28
10
28
48
ee
ENDCHAR
STARTCHAR y
ENCODING 121
SWIDTH 506 0
DWIDTH 7 0
BBX 7 10 0 -3
BITMAP
ee
44
44
28
28
10
10
10
20
40
ENDCHAR
STARTCHAR z
ENCODING 122
SWIDTH 480 0
DWIDTH 7 0
BBX 7 7 0 0
BITMAP
7e
44
08
08
10
22
fe
ENDCHAR
STARTCHAR braceleft
ENCODING 123
SWIDTH 340 0
DWIDTH 5 0
BBX 3 12 1 -2
BITMAP
20
40
40
40
40
80
40
40
40
40
40
20
ENDCHAR
STARTCHAR bar
ENCODING 124
SWIDTH 228 0
DWIDTH 3 0
BBX 1 10 1 0
BITMAP
80
80
80
80
80
80
80
80
80
80
ENDCHAR
STARTCHAR braceright
ENCODING 125
SWIDTH 340 0
DWIDTH 5 0
BBX 3 12 1 -2
BITMAP
80
40
40
40
40
20
40
40
40
40
40
80
ENDCHAR
STARTCHAR asciitilde
ENCODING 126
SWIDTH 570 0
DWIDTH 8 0
BBX 6 2 1 2
BITMAP
64
98
ENDCHAR
STARTCHAR nobreakspace
ENCODING 160
SWIDTH 225 0
DWIDTH 3 0
BBX 0 0 0 0
BITMAP
ENDCHAR
STARTCHAR Aogonek
ENCODING 161
SWIDTH 635 0
DWIDTH 9 0
BBX 9 14 0 -4
BITMAP
0800
1800
1400
1400
2400
1c00
2200
4200
4100
e380
0800
1000
1000
0c00
ENDCHAR
STARTCHAR breve
ENCODING 162
SWIDTH 400 0
DWIDTH 6 0
BBX 4 3 1 7
BITMAP
90
90
60
ENDCHAR
STARTCHAR Lstroke
ENCODING 163
SWIDTH 574 0
DWIDTH 8 0
BBX 8 10 0 0
BITMAP
70
20
20
28
30
60
a0
21
21
7e
ENDCHAR
STARTCHAR currency
ENCODING 164
SWIDTH 530 0
DWIDTH 7 0
BBX 6 7 1 1
BITMAP
b4
48
84
84
84
48
b4
ENDCHAR
STARTCHAR Lcaron
ENCODING 165
SWIDTH 568 0
DWIDTH 8 0
BBX 7 11 1 0
BITMAP
0c
e4
44
48
40
40
40
40
42
42
fc
ENDCHAR
STARTCHAR Sacute
ENCODING 166
SWIDTH 541 0
DWIDTH 8 0
BBX 6 14 1 0
BITMAP
08
10
20
00
30
cc
84
80
60
38
84
84
8c
70
ENDCHAR
STARTCHAR section
ENCODING 167
SWIDTH 554 0
DWIDTH 8 0
BBX 7 12 0 -2
BITMAP
18
24
20
50
88
84
62
12
0a
04
64
18
ENDCHAR
STARTCHAR diaeresis
ENCODING 168
SWIDTH 400 0
DWIDTH 6 0
BBX 5 1 0 8
BITMAP
d8
ENDCHAR
STARTCHAR Scaron
ENCODING 169
SWIDTH 541 0
DWIDTH 8 0
BBX 6 14 1 0
BITMAP
48
30
20
00
30
cc
84
80
60
38
84
84
8c
70
ENDCHAR
STARTCHAR Scedilla
ENCODING 170
SWIDTH 541 0
DWIDTH 8 0
BBX 6 13 1 -3
BITMAP
30
cc
84
80
60
38
84
84
8c
70
20
10
20
ENDCHAR
STARTCHAR Tcaron
ENCODING 171
SWIDTH 621 0
DWIDTH 9 0
BBX 9 14 0 0
BITMAP
1200
0c00
0800
0000
ff80
8880
8880
0800
0800
0800
0800
0800
0800
3e00
ENDCHAR
STARTCHAR Zacute
ENCODING 172
SWIDTH 610 0
DWIDTH 8 0
BBX 9 14 0 0
BITMAP
0200
0400
0800
0000
7f80
4100
4200
0400
0400
0800
1000
2080
4080
ff80
ENDCHAR
STARTCHAR hyphen
ENCODING 173
SWIDTH 392 0
DWIDTH 5 0
BBX 3 1 1 3
BITMAP
e0
ENDCHAR
STARTCHAR Zcaron
ENCODING 174
SWIDTH 610 0
DWIDTH 8 0
BBX 9 14 0 0
BITMAP
1200
0c00
0800
0000
7f80
4100
4200
0400
0400
0800
1000
2080
4080
ff80
ENDCHAR
STARTCHAR Zabovedot
ENCODING 175
SWIDTH 610 0
DWIDTH 8 0
BBX 9 12 0 0
BITMAP
0800
0000
7f80
4100
4200
0400
0400
0800
1000
2080
4080
ff80
ENDCHAR
STARTCHAR degree
ENCODING 176
SWIDTH 350 0
DWIDTH 5 0
BBX 4 4 0 5
BITMAP
60
90
90
60
ENDCHAR
STARTCHAR aogonek
ENCODING 177
SWIDTH 523 0
DWIDTH 7 0
BBX 6 11 1 -4
BITMAP
70
88
08
78
88
98
64
20
40
40
30
ENDCHAR
STARTCHAR ogonek
ENCODING 178
SWIDTH 400 0
DWIDTH 6 0
BBX 3 4 1 -3
BITMAP
40
80
80
60
ENDCHAR
STARTCHAR lstroke
ENCODING 179
SWIDTH 294 0
DWIDTH 4 0
BBX 4 10 1 0
BITMAP
40
c0
40
50
60
c0
40
40
40
e0
ENDCHAR
STARTCHAR acute
ENCODING 180
SWIDTH 400 0
DWIDTH 6 0
BBX 3 3 2 7
BITMAP
20
40
80
ENDCHAR
STARTCHAR lcaron
ENCODING 181
SWIDTH 432 0
DWIDTH 6 0
BBX 5 11 0 0
BITMAP
18
48
c8
50
40
40
40
40
40
40
e0
ENDCHAR
STARTCHAR sacute
ENCODING 182
SWIDTH 436 0
DWIDTH 6 0
BBX 4 11 1 0
BITMAP
10
20
40
00
60
90
80
60
10
90
60
ENDCHAR
STARTCHAR caron
ENCODING 183
SWIDTH 400 0
DWIDTH 6 0
BBX 4 3 1 7
BITMAP
90
60
40
ENDCHAR
STARTCHAR cedilla
ENCODING 184
SWIDTH 400 0
DWIDTH 6 0
BBX 2 3 3 -3
BITMAP
80
40
80
ENDCHAR
STARTCHAR scaron
ENCODING 185
SWIDTH 436 0
DWIDTH 6 0
BBX 4 11 1 0
BITMAP
90
60
40
00
60
90
80
60
10
90
60
ENDCHAR
STARTCHAR scedilla
ENCODING 186
SWIDTH 436 0
DWIDTH 6 0
BBX 4 10 1 -3
BITMAP
60
90
80
60
10
90
60
40
20
40
ENDCHAR
STARTCHAR tcaron
ENCODING 187
SWIDTH 432 0
DWIDTH 6 0
BBX 5 12 1 0
BITMAP
18
08
08
50
40
f0
40
40
40
40
40
30
ENDCHAR
STARTCHAR zacute
ENCODING 188
SWIDTH 480 0
DWIDTH 7 0
BBX 7 11 0 0
BITMAP
04
08
10
00
7e
44
08
08
10
22
fe
ENDCHAR
STARTCHAR doubleacute
ENCODING 189
SWIDTH 400 0
DWIDTH 6 0
BBX 4 3 1 7
BITMAP
90
a0
a0
ENDCHAR
STARTCHAR zcaron
ENCODING 190
SWIDTH 480 0
DWIDTH 7 0
BBX 7 11 0 0
BITMAP
24
18
10
00
7e
44
08
08
10
22
fe
ENDCHAR
STARTCHAR zabovedot
ENCODING 191
SWIDTH 480 0
DWIDTH 7 0
BBX 7 9 0 0
BITMAP
10
00
7e
44
08
08
10
22
fe
ENDCHAR
STARTCHAR Racute
ENCODING 192
SWIDTH 644 0
DWIDTH 9 0
BBX 8 14 1 0
BITMAP
08
10
20
00
f8
44
42
42
44
78
44
42
42
e1
ENDCHAR
STARTCHAR Aacute
ENCODING 193
SWIDTH 635 0
DWIDTH 9 0
BBX 9 12 0 0
BITMAP
0c00
1000
0800
1400
1400
1400
2200
1e00
2200
4100
4100
e380
ENDCHAR
STARTCHAR Acircumflex
ENCODING 194
SWIDTH 635 0
DWIDTH 9 0
BBX 9 12 0 0
BITMAP
1c00
2200
0800
1800
1400
1400
2400
1c00
2200
4200
4100
e380
ENDCHAR
STARTCHAR Abreve
ENCODING 195
SWIDTH 635 0
DWIDTH 9 0
BBX 9 14 0 0
BITMAP
2400
2400
1800
0000
0800
1800
1400
1400
2400
1c00
2200
4200
4100
e380
ENDCHAR
STARTCHAR Adiaeresis
ENCODING 196
SWIDTH 635 0
DWIDTH 9 0
BBX 9 11 0 0
BITMAP
2400
1000
2800
2800
2400
2400
3c00
4200
4100
4100
c780
ENDCHAR
STARTCHAR Lacute
ENCODING 197
SWIDTH 568 0
DWIDTH 8 0
BBX 7 14 1 0
BITMAP
10
20
40
00
e0
40
40
40
40
40
40
42
42
fc
ENDCHAR
STARTCHAR Cacute
ENCODING 198
SWIDTH 684 0
DWIDTH 9 0
BBX 8 14 1 0
BITMAP
02
04
08
00
3c
43
41
80
80
80
80
81
63
1c
ENDCHAR
STARTCHAR Ccedilla
ENCODING 199
SWIDTH 680 0
DWIDTH 9 0
BBX 8 13 1 -3
BITMAP
1e
21
41
80
80
80
80
41
61
1e
08
08
0c
ENDCHAR
STARTCHAR Ccaron
ENCODING 200
SWIDTH 684 0
DWIDTH 9 0
BBX 8 14 1 0
BITMAP
12
0c
08
00
3c
43
41
80
80
80
80
81
63
1c
ENDCHAR
STARTCHAR Eacute
ENCODING 201
SWIDTH 606 0
DWIDTH 8 0
BBX 7 12 1 0
BITMAP
08
30
fe
42
42
40
44
7c
44
40
42
fe
ENDCHAR
STARTCHAR Eogonek
ENCODING 202
SWIDTH 606 0
DWIDTH 8 0
BBX 7 14 1 -4
BITMAP
fe
42
42
40
44
7c
44
40
42
fe
10
20
20
18
ENDCHAR
STARTCHAR Ediaeresis
ENCODING 203
SWIDTH 606 0
DWIDTH 8 0
BBX 7 11 1 0
BITMAP
48
fe
42
42
40
44
7c
44
40
42
fe
ENDCHAR
STARTCHAR Ecaron
ENCODING 204
SWIDTH 606 0
DWIDTH 8 0
BBX 7 14 1 0
BITMAP
24
18
10
00
fe
42
42
40
44
7c
44
40
42
fe
ENDCHAR
STARTCHAR Iacute
ENCODING 205
SWIDTH 349 0
DWIDTH 5 0
BBX 3 12 1 0
BITMAP
60
00
e0
40
40
40
40
40
40
40
40
e0
ENDCHAR
STARTCHAR Icircumflex
ENCODING 206
SWIDTH 349 0
DWIDTH 5 0
BBX 3 12 1 0
BITMAP
e0
00
e0
40
40
40
40
40
40
40
40
e0
ENDCHAR
STARTCHAR Dcaron
ENCODING 207
SWIDTH 779 0
DWIDTH 11 0
BBX 9 14 1 0
BITMAP
2400
1800
1000
0000
fe00
4100
4100
4080
4080
4080
4080
4100
4300
fc00
ENDCHAR
STARTCHAR Dstroke
ENCODING 208
SWIDTH 785 0
DWIDTH 11 0
BBX 9 10 1 0
BITMAP
fe00
4100
4100
4080
4080
f080
4080
4080
4300
fc00
ENDCHAR
STARTCHAR Nacute
ENCODING 209
SWIDTH 780 0
DWIDTH 11 0
BBX 9 14 1 0
BITMAP
0200
0400
0800
0000
c380
6100
5100
5100
4900
4900
4500
4300
4300
e100
ENDCHAR
STARTCHAR Ncaron
ENCODING 210
SWIDTH 780 0
DWIDTH 11 0
BBX 9 14 1 0
BITMAP
1200
0c00
0800
0000
c380
6100
5100
5100
4900
4900
4500
4300
4300
e100
ENDCHAR
STARTCHAR Oacute
ENCODING 211
SWIDTH 762 0
DWIDTH 11 0
BBX 9 12 1 0
BITMAP
0400
1800
3e00
4100
4100
8080
8080
8080
8080
4100
4100
3e00
ENDCHAR
STARTCHAR Ocircumflex
ENCODING 212
SWIDTH 762 0
DWIDTH 11 0
BBX 9 12 1 0
BITMAP
0800
3600
3e00
4100
4100
8080
8080
8080
8080
4100
4100
3e00
ENDCHAR
STARTCHAR Odoubleacute
ENCODING 213
SWIDTH 762 0
DWIDTH 11 0
BBX 9 14 1 0
BITMAP
1200
1400
1400
0000
3e00
4100
4100
8080
8080
8080
8080
4100
4100
3e00
ENDCHAR
STARTCHAR Odiaeresis
ENCODING 214
SWIDTH 762 0
DWIDTH 11 0
BBX 9 11 1 0
BITMAP
2400
3e00
4100
4100
8080
8080
8080
8080
4100
4100
3e00
ENDCHAR
STARTCHAR multiply
ENCODING 215
SWIDTH 570 0
DWIDTH 8 0
BBX 6 6 1 0
BITMAP
84
48
30
30
48
84
ENDCHAR
STARTCHAR Rcaron
ENCODING 216
SWIDTH 644 0
DWIDTH 9 0
BBX 8 14 1 0
BITMAP
48
30
20
00
f8
44
42
42
44
78
44
42
42
e1
ENDCHAR
STARTCHAR Uring
ENCODING 217
SWIDTH 791 0
DWIDTH 11 0
BBX 9 15 1 0
BITMAP
0800
1400
1400
0800
0000
e380
4100
4100
4100
4100
4100
4100
4100
2200
1c00
ENDCHAR
STARTCHAR Uacute
ENCODING 218
SWIDTH 791 0
DWIDTH 11 0
BBX 9 12 1 0
BITMAP
0600
0800
e380
4100
4100
4100
4100
4100
4100
4100
2200
1c00
ENDCHAR
STARTCHAR Udoubleacute
ENCODING 219
SWIDTH 791 0
DWIDTH 11 0
BBX 9 14 1 0
BITMAP
1200
1400
1400
0000
e380
4100
4100
4100
4100
4100
4100
4100
2200
1c00
ENDCHAR
STARTCHAR Udiaeresis
ENCODING 220
SWIDTH 791 0
DWIDTH 11 0
BBX 9 11 1 0
BITMAP
1400
e380
4100
4100
4100
4100
4100
4100
4100
2200
1c00
ENDCHAR
STARTCHAR Yacute
ENCODING 221
SWIDTH 588 0
DWIDTH 8 0
BBX 9 12 0 0
BITMAP
0200
0400
f180
2100
2200
1200
1400
0800
0800
0800
0800
1e00
ENDCHAR
STARTCHAR Tcedilla
ENCODING 222
SWIDTH 621 0
DWIDTH 9 0
BBX 9 13 0 -3
BITMAP
ff80
8880
8880
0800
0800
0800
0800
0800
0800
3e00
0800
0400
0800
ENDCHAR
STARTCHAR ssharp
ENCODING 223
SWIDTH 601 0
DWIDTH 8 0
BBX 8 10 0 0
BITMAP
1c
22
42
44
48
44
46
45
41
ee
ENDCHAR
STARTCHAR racute
ENCODING 224
SWIDTH 389 0
DWIDTH 5 0
BBX 5 11 1 0
BITMAP
08
10
20
00
78
c0
40
40
40
40
e0
ENDCHAR
STARTCHAR aacute
ENCODING 225
SWIDTH 523 0
DWIDTH 7 0
BBX 6 10 1 0
BITMAP
18
20
00
70
88
08
78
88
98
64
ENDCHAR
STARTCHAR acircumflex
ENCODING 226
SWIDTH 523 0
DWIDTH 7 0
BBX 6 10 1 0
BITMAP
20
58
00
70
88
08
78
88
98
64
ENDCHAR
STARTCHAR abreve
ENCODING 227
SWIDTH 523 0
DWIDTH 7 0
BBX 6 11 1 0
BITMAP
48
48
30
00
70
88
08
78
88
98
64
ENDCHAR
STARTCHAR adiaeresis
ENCODING 228
SWIDTH 523 0
DWIDTH 7 0
BBX 6 9 1 0
BITMAP
48
00
70
88
08
78
88
98
64
ENDCHAR
STARTCHAR lacute
ENCODING 229
SWIDTH 279 0
DWIDTH 4 0
BBX 3 14 0 0
BITMAP
20
40
80
00
40
c0
40
40
40
40
40
40
40
e0
ENDCHAR
STARTCHAR cacute
ENCODING 230
SWIDTH 496 0
DWIDTH 7 0
BBX 5 11 1 0
BITMAP
08
10
20
00
30
48
80
80
80
48
30
ENDCHAR
STARTCHAR ccedilla
ENCODING 231
SWIDTH 496 0
DWIDTH 7 0
BBX 5 10 1 -3
BITMAP
30
48
80
80
80
48
30
20
20
30
ENDCHAR
STARTCHAR ccaron
ENCODING 232
SWIDTH 496 0
DWIDTH 7 0
BBX 5 11 1 0
BITMAP
48
30
20
00
30
48
80
80
80
48
30
ENDCHAR
STARTCHAR eacute
ENCODING 233
SWIDTH 514 0
DWIDTH 7 0
BBX 5 10 1 0
BITMAP
10
60
00
30
48
88
f0
80
88
70
ENDCHAR
STARTCHAR eogonek
ENCODING 234
SWIDTH 514 0
DWIDTH 7 0
BBX 5 11 1 -4
BITMAP
30
48
88
f0
80
88
70
20
40
40
30
ENDCHAR
STARTCHAR ediaeresis
ENCODING 235
SWIDTH 514 0
DWIDTH 7 0
BBX 5 9 1 0
BITMAP
48
00
30
48
88
f0
80
88
70
ENDCHAR
STARTCHAR ecaron
ENCODING 236
SWIDTH 514 0
DWIDTH 7 0
BBX 5 11 1 0
BITMAP
48
30
20
00
30
48
88
f0
80
88
70
ENDCHAR
STARTCHAR iacute
ENCODING 237
SWIDTH 291 0
DWIDTH 4 0
BBX 3 10 1 0
BITMAP
20
c0
00
40
c0
40
40
40
40
e0
ENDCHAR
STARTCHAR icircumflex
ENCODING 238
SWIDTH 291 0
DWIDTH 4 0
BBX 3 10 1 0
BITMAP
40
a0
00
40
c0
40
40
40
40
e0
ENDCHAR
STARTCHAR dcaron
ENCODING 239
SWIDTH 720 0
DWIDTH 10 0
BBX 9 11 1 0
BITMAP
0180
0480
0c80
0500
3c00
4400
8400
8400
8400
4c00
3600
ENDCHAR
STARTCHAR dstroke
ENCODING 240
SWIDTH 648 0
DWIDTH 9 0
BBX 8 10 1 0
BITMAP
04
04
ff
3c
44
84
84
84
4c
36
ENDCHAR
STARTCHAR nacute
ENCODING 241
SWIDTH 619 0
DWIDTH 9 0
BBX 7 11 1 0
BITMAP
08
10
20
00
58
e4
44
44
44
44
ee
ENDCHAR
STARTCHAR ncaron
ENCODING 242
SWIDTH 619 0
DWIDTH 9 0
BBX 7 11 1 0
BITMAP
48
30
20
00
58
e4
44
44
44
44
ee
ENDCHAR
STARTCHAR oacute
ENCODING 243
SWIDTH 577 0
DWIDTH 8 0
BBX 6 10 1 0
BITMAP
08
30
00
30
48
84
84
84
48
30
ENDCHAR
STARTCHAR ocircumflex
ENCODING 244
SWIDTH 577 0
DWIDTH 8 0
BBX 6 10 1 0
BITMAP
30
48
00
30
48
84
84
84
48
30
ENDCHAR
STARTCHAR odoubleacute
ENCODING 245
SWIDTH 577 0
DWIDTH 8 0
BBX 6 11 1 0
BITMAP
48
50
50
00
30
48
84
84
84
48
30
ENDCHAR
STARTCHAR odiaeresis
ENCODING 246
SWIDTH 577 0
DWIDTH 8 0
BBX 6 9 1 0
BITMAP
48
00
30
48
84
84
84
48
30
ENDCHAR
STARTCHAR division
ENCODING 247
SWIDTH 570 0
DWIDTH 8 0
BBX 6 5 1 1
BITMAP
20
00
fc
00
20
ENDCHAR
STARTCHAR rcaron
ENCODING 248
SWIDTH 389 0
DWIDTH 5 0
BBX 5 11 1 0
BITMAP
48
30
20
00
78
c0
40
40
40
40
e0
ENDCHAR
STARTCHAR uring
ENCODING 249
SWIDTH 606 0
DWIDTH 8 0
BBX 8 12 0 0
BITMAP
10
28
28
10
00
42
c6
42
42
42
46
3b
ENDCHAR
STARTCHAR uacute
ENCODING 250
SWIDTH 606 0
DWIDTH 8 0
BBX 8 11 0 0
BITMAP
04
04
18
00
42
c6
42
42
42
46
3b
ENDCHAR
STARTCHAR udoubleacute
ENCODING 251
SWIDTH 606 0
DWIDTH 8 0
BBX 8 11 0 0
BITMAP
24
28
28
00
42
c6
42
42
42
46
3b
ENDCHAR
STARTCHAR udiaeresis
ENCODING 252
SWIDTH 606 0
DWIDTH 8 0
BBX 8 9 0 0
BITMAP
24
00
42
c6
42
42
42
46
3b
ENDCHAR
STARTCHAR yacute
ENCODING 253
SWIDTH 506 0
DWIDTH 7 0
BBX 7 13 0 -3
BITMAP
0c
10
00
ee
44
44
28
28
10
10
10
20
40
ENDCHAR
STARTCHAR tcedilla
ENCODING 254
SWIDTH 344 0
DWIDTH 5 0
BBX 4 12 1 -3
BITMAP
40
40
f0
40
40
40
40
40
30
40
20
40
ENDCHAR
STARTCHAR abovedot
ENCODING 255
SWIDTH 400 0
DWIDTH 6 0
BBX 1 1 2 8
BITMAP
80
ENDCHAR
ENDFONT
